<svg xmlns="http://www.w3.org/2000/svg" viewBox="0 0 80 80">
  <title>explore icon</title>
  <g id="explore" fill="#FFF" fill-rule="evenodd">
    <path id="circle-inside" d="M39.634 19.612c-11.1 0-20.127 9.028-20.127 20.127 0 11.09 9.028 20.12 20.127 20.12 11.1 0 20.127-9.03 20.127-20.13S50.74 19.6 39.64 19.6zm0 38.554c-10.16 0-18.427-8.267-18.427-18.427 0-10.17 8.266-18.43 18.427-18.43 10.16 0 18.427 8.26 18.427 18.43 0 10.16-8.26 18.42-18.42 18.42z"/>
    <path id="north" d="M34.814 16.492c.47 0 .85-.38.85-.85V8.056l8.188 8.187c.162.163.38.25.6.25.11 0 .22-.023.327-.065.31-.132.52-.442.52-.786V6.004c0-.47-.38-.85-.85-.85s-.85.38-.85.85v7.585L35.41 5.4c-.244-.243-.61-.314-.927-.184-.32.13-.53.442-.53.786v9.638c0 .47.38.85.85.85"/>
    <path id="arrow" d="M49.35 28.88l-13.63 6.814c-.022.012-.034.035-.055.05-.058.033-.103.077-.15.125-.048.04-.092.09-.127.14-.014.02-.036.032-.047.055L28.53 49.7c-.165.33-.1.725.16.983.16.164.38.25.6.25.13 0 .26-.03.38-.09L43.3 44.03c.022-.01.034-.034.056-.047.057-.035.1-.078.15-.127.047-.047.09-.092.126-.15.014-.02.037-.033.048-.056l6.816-13.63c.162-.327.098-.722-.16-.98-.26-.26-.655-.323-.982-.16zm-6.666 12.956l-1.973-1.973 5.92-5.918-3.94 7.89zm2.743-9.093l-5.92 5.917-1.97-1.972 7.89-3.945zm-14.24 15.443l5.146-10.296 5.148 5.148-10.29 5.148z"/>
    <path id="circle-outside" d="M39.634.334C17.907.334.23 18.01.23 39.74c0 21.726 17.677 39.402 39.404 39.402 21.727 0 39.404-17.676 39.404-39.403C79.038 18.01 61.36.33 39.634.33zm.85 77.087v-3.94c0-.47-.38-.85-.85-.85s-.85.38-.85.85v3.95C18.67 76.977 2.4 60.707 1.95 40.59H5.9c.468 0 .85-.38.85-.85s-.382-.85-.85-.85H1.95C2.407 18.492 19.13 2.035 39.635 2.035c20.505 0 37.227 16.457 37.682 36.855H73.37c-.47 0-.85.378-.85.85 0 .468.38.848.85.848h3.946c-.45 20.115-16.718 36.385-36.832 36.833z"/>
  </g>
</svg>