<svg viewBox="0 0 47 32" xmlns="http://www.w3.org/2000/svg">
  <title>home icon</title>
  <g id="home" fill="none" fill-rule="evenodd">
    <path id="shape" stroke="#FFF" d="M5.438 8.426V5.9H14.5V1h18v4.9h9v2.526H46v15.148h-4.5v2.6h-9V31h-18v-4.827H5.437v-2.6H1V8.427h4.438z"/>
    <path id="lettering" fill="#FFF" d="M8.148 20v-7.11h.937v3.072h3.775v-3.07h.927V20h-.923v-3.252h-3.78V20H8.15zm11.324.107c-1.074 0-1.92-.33-2.536-.99-.617-.662-.926-1.554-.926-2.677 0-.725.136-1.364.408-1.916.272-.552.67-.983 1.2-1.294.526-.31 1.148-.466 1.864-.466 1.045 0 1.877.337 2.498 1.013.62.675.93 1.563.93 2.663 0 1.12-.306 2.01-.918 2.674-.612.662-1.452.993-2.52.993zm-.01-.786c.795 0 1.4-.25 1.812-.76.413-.51.62-1.21.62-2.11 0-.87-.207-1.57-.622-2.1-.415-.52-1.015-.79-1.8-.79-.78 0-1.387.27-1.82.8-.43.53-.646 1.23-.646 2.1 0 .893.212 1.596.635 2.11.43.515 1.03.77 1.83.77zm5.666.68v-7.11h1.133l1.1 2.51c.65 1.49 1.15 2.62 1.48 3.4.34-.78.83-1.91 1.49-3.4l1.11-2.5h1.11V20h-.89v-5.59c-.32.735-.78 1.784-1.39 3.146-.61 1.362-.97 2.177-1.09 2.444h-.67l-2.11-4.75-.36-.88V20h-.9zm10.104 0v-7.11h4.258v.79h-3.326v2.24h3.14v.79h-3.14v2.51h3.467V20h-4.39z"/>
  </g>
</svg>