<svg xmlns="http://www.w3.org/2000/svg" viewBox="0 0 181 181">
  <title>app icon</title>
  <g id="icon" fill="none" fill-rule="evenodd">
    <path fill="#666" d="M.094 41.756C.094 19.04 18.51.623 41.227.623h97.733c22.718 0 41.134 18.417 41.134 41.133v97.734c0 22.717-18.418 41.133-41.134 41.133H41.227C18.51 180.623.094 162.206.094 139.49V41.756"/>
    <path fill="gray" d="M90.025 81.605l.005-.008h-.004v.008"/>
    <path fill="gray" d="M90.05 81.592v-.013.01"/>
    <path fill="gray" d="M90.09 81.63v-.002.002"/>
    <path fill="gray" d="M90.083 81.625v-.002h-.002l.01.002"/>
    <path fill="gray" d="M90.05 81.594v-.002.002"/>
    <path fill="gray" d="M90.05 81.594l.002.002-.002-.002"/>
    <path fill="gray" d="M90.05 81.593l.002.003v-.003"/>
    <path fill="gray" d="M90.053 81.592h-.002.01"/>
    <path fill="gray" d="M90.042 81.59l-.003.004v.003-.003l-.01-.005"/>
    <path fill="gray" d="M90.09 81.63v-.002.003"/>
    <path fill="gray" d="M90.05 81.593l-.005-.008.005.008"/>
    <path fill="gray" d="M90.04 81.6h.002l.002-.002h-.003"/>
    <path fill="gray" d="M90.08 81.623l-.01-.01.005.01h.006"/>
    <path fill="gray" d="M90.065 81.614v.01h.004l-.01-.01"/>
    <path fill="gray" d="M119.583.623h-15.3L90.058 81.446v.095L119.583.63"/>
    <path fill="gray" d="M90.08 81.637l.008-.006-.007.01"/>
    <path fill="gray" d="M90.057.623H75.855l14.184 80.91.01-.087V.623"/>
    <path fill="gray" d="M90.074 81.635l.002.005.005-.004v-.004.003"/>
    <path fill="gray" d="M90.107 180.623h21.604l-21.62-98.94-.02.096.05 98.84"/>
    <path fill="gray" d="M45.056 180.623h23.448l21.56-98.844v-.09l-45.008 98.93"/>
    <path fill="gray" d="M60.562.623h-18.07l47.54 80.944.005-.023L60.562.624"/>
    <path fill="gray" d="M90.08 81.632l.007-.003-.004-.01h-.006.002"/>
    <path fill="gray" d="M90.084 81.644l.005-.012-.01.012"/>
    <path fill="gray" d="M90.08 81.637l-.003.005.002.013v-.01l-.01-.008"/>
    <path fill="gray" d="M90.09 81.63h-.002v.002h.002v-.002"/>
    <path fill="gray" d="M90.077 81.628l-.002-.005h-.006v.007-.002"/>
    <path fill="gray" d="M90.072 81.63l-.007.002v.006l.01-.003-.003-.005"/>
    <path fill="gray" d="M90.07 81.647l-.005.003v.003l.012-.01v-.002l-.008.01"/>
    <path fill="gray" d="M90.032 81.57L22.836 4.965c-5.865 2.938-10.93 7.232-14.78 12.477l81.974 64.14.002-.012"/>
    <path fill="gray" d="M90.04 81.532l-.003.012.01.022-.008-.034"/>
    <path fill="gray" d="M90.04 81.58l-.008-.013v.003l.003.003.005.007"/>
    <path fill="gray" d="M90.028 81.587l-.003-.002L.725 34.61c-.407 2.322-.63 4.707-.63 7.146v11.77l89.93 28.07.003-.01"/>
    <path fill="gray" d="M90.065 81.632v-.01L.095 71.372V89.21l89.967-7.575.003-.002"/>
    <path fill="gray" d="M90.052 81.596l-.003-.002-.01.004v.003h-.01l-.01.01h.03l89.39-47.11c-1.13-6.31-3.69-12.13-7.34-17.09L90.05 81.6v.004"/>
    <path fill="gray" d="M90.053 81.59l67.165-76.693C151.716 2.167 145.52.623 138.96.623h-1.36L90.057 81.567l-.004.024"/>
    <path fill="gray" d="M90.047 81.568l.002.01v-.037l-.01.03"/>
    <path fill="gray" d="M90.065 81.638L.095 108.315v22.694l89.97-49.36v-.02"/>
    <path fill="gray" d="M90.07 81.613l.027.01h.003l89.994 26.715V89.272L90.1 81.612h-.03"/>
    <path fill="gray" d="M90.062 81.6l-.004.003-.028.004.028.006h.013L180.1 71.36V53.507l-90.032 28.1"/>
    <path fill="gray" d="M90.07 81.613l.012.01h.008l-.006.002.004.004.003-.01 86.04 75.48c2.54-5.35 3.97-11.32 3.97-17.63v-8.38l-90-49.49-.03-.01"/>
    <path fill="gray" d="M90.036 81.598l-.006.01.01-.01h-.004"/>
    <path fill="gray" d="M90.08 81.655l-.015.02v.014l.014-.04"/>
    <path fill="gray" d="M90.09 81.633v.023l45.575 98.967h3.295c7.386 0 14.312-1.957 20.304-5.365L90.09 81.634"/>
    <path fill="gray" d="M90.08 81.655l.005.027.005-.025-.006-.013-.004.01"/>
    <path fill="gray" d="M4.032 157.062c3.626 7.66 9.55 14.015 16.88 18.19l69.153-93.576v-.023l-86.033 75.41"/>
    <path fill="gray" d="M90.037 81.586l-.007-.005-.002.01.006.01h.003"/>
    <path fill="gray" d="M90.044 81.586l-.004-.006-.003.006.005.003.002-.01"/>
    <path fill="gray" d="M90.034 81.59l-.004.007h.006l.003-.003-.01-.003"/>
    <path fill="gray" d="M90.05 81.58l-.004-.013-.005.012h.01l.01-.01"/>
    <path fill="#FFF" d="M119.88 112.45c-.992-.946-2.31-1.468-3.71-1.468s-2.72.52-3.714 1.467c-5.18 4.93-13.523 7.87-22.314 7.87-15.096 0-27.378-8.31-27.378-18.52 0-5.82 4.18-11.36 11.2-14.87 3.69 1.22 8.765 1.89 14.35 1.89 9.833 0 20.414-2.29 20.414-7.3s-10.58-7.3-20.413-7.3c-5.532 0-10.57.66-14.252 1.86C69.93 73.33 67.66 69.76 67.66 66c0-7.87 10.218-14.517 22.312-14.517 6.405 0 12.534 1.847 16.815 5.066.937.7 2.06 1.07 3.25 1.07 1.617 0 3.12-.7 4.126-1.91.875-1.06 1.27-2.38 1.112-3.72-.16-1.36-.865-2.57-1.985-3.41-6.19-4.656-14.472-7.22-23.318-7.22-18.114 0-32.85 11.046-32.85 24.622 0 5.45 2.41 10.76 6.817 15.065-7.46 5.39-11.72 12.894-11.72 20.73 0 12.52 11.09 23.79 26.97 27.405l.06.01c3.03.476 4.38 2.977 4.38 5.245V155h12.59v-20.54c0-1.16.93-4.64 3.77-5.01l.06-.013c7.88-1.587 14.74-4.983 19.82-9.82 1-.956 1.56-2.23 1.56-3.586 0-1.35-.56-2.63-1.56-3.58"/>
    <path fill="#FFF" d="M117.354 147.718c-.696 0-1.26-.56-1.26-1.25v-3.444c0-9.142 7.307-17.11 10.45-20.112.015-.016.032-.032.05-.047 11.502-9.844 18.1-23.923 18.1-38.625 0-12.367-4.387-24.284-12.35-33.555-7.958-9.265-19.162-15.514-31.55-17.597-.04-.007-.08-.016-.12-.027-5.502-1.48-7.453-6.15-8.635-10.52-.55-2 .65-3.75.79-3.94.02-.04.05-.07.08-.11 1.01-1.13 1.08-2.41 1.08-2.43 0-.83-.36-2.86-3.67-2.86h-.69c-3.32 0-3.67 2.03-3.67 2.9 0 0 .08 1.29 1.08 2.4.03.04.06.07.08.11.14.198 1.33 1.94.79 3.95-1.188 4.37-3.138 9.04-8.64 10.528-.04.013-.08.02-.12.03C66.76 35.2 55.56 41.45 47.6 50.714c-7.962 9.27-12.347 21.19-12.347 33.556 0 14.7 6.593 28.78 18.1 38.622l.05.046c3.14 3 10.45 10.97 10.45 20.11v3.44c0 .69-.568 1.25-1.26 1.25-.7 0-1.26-.56-1.26-1.25v-3.44c0-8.16-6.73-15.49-9.656-18.29C39.65 114.43 32.74 99.67 32.74 84.252c0-12.96 4.6-25.453 12.95-35.177 8.326-9.696 20.037-16.24 32.98-18.43 3.41-.946 5.384-3.485 6.807-8.746.21-.77-.277-1.62-.39-1.81-1.553-1.77-1.65-3.73-1.658-3.95 0-2.72 1.91-5.44 6.19-5.44h.69c4.27 0 6.19 2.71 6.19 5.4-.01.253-.11 2.22-1.67 3.992-.19.295-.577 1.1-.387 1.802 1.423 5.26 3.4 7.8 6.806 8.747 12.942 2.198 24.654 8.74 32.98 18.43 8.36 9.72 12.96 22.218 12.96 35.178 0 15.42-6.908 30.18-18.95 40.5-2.926 2.796-9.655 10.13-9.655 18.286v3.446c0 .69-.565 1.25-1.26 1.25"/>
    <path fill="#231F1F" d="M152.86 164.606h-5.123v-6.985h2.006c1.304 0 2.36-1 2.36-2.24 0-1.24-1.056-2.24-2.36-2.24h-10.79c-1.302 0-2.358 1.01-2.358 2.25s1.056 2.25 2.36 2.25h1.91v6.99c-14.904.028-21.624.61-22.15-11.664h4.042c1.55 0 2.81-1.2 2.81-2.675v-4.38c0-1.476-1.26-2.673-2.81-2.673H55.38c-1.55 0-2.807 1.197-2.807 2.674v4.37c0 1.473 1.257 2.67 2.808 2.67h3.86c-.5 11.71-6.64 11.72-20.14 11.67v-6.99h2c1.31 0 2.36-1.01 2.36-2.25s-1.05-2.245-2.36-2.245H30.31c-1.304 0-2.36 1.005-2.36 2.245s1.056 2.25 2.36 2.25h1.91v6.982h-4.338c-4.21 0-9.927 1.623-15.535 4.2 7.424 7.3 17.603 11.81 28.84 11.81h97.732c11.27 0 21.49-4.54 28.92-11.89-5.8-2.56-11.53-4.126-14.98-4.126"/>
  </g>
</svg>