<svg xmlns="http://www.w3.org/2000/svg" viewBox="0 0 30 30">
  <title>info icon</title>
  <g id="info" fill="#FFF" fill-rule="evenodd">
    <path id="circle" d="M14.625 29.25C6.56 29.25 0 22.69 0 14.625 0 6.56 6.56 0 14.625 0 22.69 0 29.25 6.56 29.25 14.625c0 8.065-6.56 14.625-14.625 14.625zm0-27.857C7.33 1.393 1.393 7.33 1.393 14.625c0 7.296 5.936 13.232 13.232 13.232 7.296 0 13.232-5.936 13.232-13.232 0-7.296-5.936-13.232-13.232-13.232z"/>
    <path id="i" d="M13 5h2.893v2.535H13V5zm0 5.69h2.893v12.882H13V10.69z"/>
  </g>
</svg>