<svg viewBox="0 0 39 39" xmlns="http://www.w3.org/2000/svg">
  <title>menu icon</title>
  <g id="menu" fill="none" fill-rule="evenodd">
    <path id="circle" stroke="#FFF" d="M38.143 19.57c0 10.258-8.315 18.573-18.572 18.573C9.317 38.143 1 29.828 1 19.57 1 9.316 9.314 1 19.57 1c10.26 0 18.574 8.315 18.574 18.57z"/>
    <path id="e" fill="#FFF" d="M21.95 28.343l.013-.002c1.642-.33 3.07-1.035 4.13-2.042.208-.2.323-.465.323-.748s-.115-.548-.324-.747c-.207-.197-.48-.306-.773-.306-.295 0-.57.11-.777.306-1.08 1.027-2.816 1.64-4.648 1.64-3.144 0-5.702-1.73-5.702-3.858 0-1.21.87-2.365 2.333-3.097.768.254 1.825.394 2.99.394 2.047 0 4.25-.474 4.25-1.52 0-1.042-2.203-1.518-4.25-1.518-1.154 0-2.202.137-2.97.387-.86-.572-1.333-1.316-1.333-2.1 0-1.64 2.128-3.023 4.647-3.023 1.335 0 2.61.384 3.503 1.055.196.148.43.225.677.225.338 0 .65-.145.86-.397.183-.22.265-.495.232-.774-.033-.282-.18-.534-.413-.71-1.29-.97-3.018-1.504-4.86-1.504-3.774 0-6.843 2.3-6.843 5.13 0 1.133.502 2.24 1.42 3.136C12.887 19.39 12 20.952 12 22.584c0 2.608 2.31 4.955 5.617 5.708l.012.003s1.69.59 4.32.048"/>
  </g>
</svg>