<svg xmlns="http://www.w3.org/2000/svg" viewBox="0 0 50 80">
  <title>pop icon</title>
  <g id="pop" fill="#FFF" fill-rule="evenodd">
    <path id="shape" d="M49.956 25.28C49.956 11.526 38.766.335 25.01.335 11.253.335.062 11.525.062 25.28c0 12.197 8.914 30.177 20.627 33.888l-1.32 4.424c-.077.258-.027.536.133.75.16.216.414.342.682.342h3.97v13.61c0 .468.38.848.85.848s.85-.38.85-.85V64.685h3.967c.268 0 .52-.126.682-.34.16-.216.21-.494.133-.752L29.32 59.17c11.714-3.71 20.63-21.69 20.63-33.89zM28.688 62.986H21.33l1.007-3.386c.878.17 1.77.265 2.672.265.9 0 1.79-.094 2.67-.266l1.003 3.38zm-3.68-4.82c-7.765 0-13.56-7.197-16.322-11.486-4.27-6.63-6.923-14.83-6.923-21.4 0-12.817 10.428-23.246 23.246-23.246 12.812 0 23.24 10.43 23.24 23.247 0 6.57-2.65 14.77-6.92 21.4-2.765 4.29-8.56 11.49-16.326 11.49z"/>
  </g>
</svg>