<svg xmlns="http://www.w3.org/2000/svg" viewBox="0 0 60 81">
  <title>portrait icon</title>
  <g id="portrait" fill="none" fill-rule="evenodd" stroke="#FFF" stroke-width="2">
    <path id="shape" d="M14.09 49.696V79.43H1V1h30.058c8.655 0 15.433 2.236 20.335 6.707 4.902 4.47 7.353 10.35 7.353 17.64 0 7.363-2.45 13.262-7.353 17.697-4.902 4.435-11.68 6.652-20.335 6.652H14.09zm0-10.504h16.968c4.848 0 8.493-1.293 10.935-3.878 2.442-2.586 3.663-5.872 3.663-9.858 0-3.986-1.22-7.308-3.663-9.965-2.442-2.656-6.087-3.985-10.935-3.985H14.09v27.688z"/>
  </g>
</svg>