<svg xmlns="http://www.w3.org/2000/svg" viewBox="0 0 79 79">
  <title>scroll icon</title>
  <g id="scroll" fill="#FFF" fill-rule="evenodd">
    <path id="shape" d="M70.25 0H23.983c-4.72 0-8.56 3.84-8.56 8.56v53.127H8.56c-4.72 0-8.56 3.84-8.56 8.56 0 4.72 3.84 8.56 8.56 8.56h46.27c4.72 0 8.56-3.84 8.56-8.56V17.122h6.862c4.72 0 8.56-3.84 8.56-8.56 0-4.72-3.84-8.56-8.56-8.56zM8.56 77.108c-3.782 0-6.86-3.078-6.86-6.86 0-3.783 3.078-6.862 6.86-6.862h41.17c-2.098 1.562-3.464 4.052-3.464 6.862 0 2.808 1.366 5.298 3.463 6.86H8.56zm53.13-6.86c0 3.782-3.08 6.86-6.862 6.86-3.784 0-6.862-3.078-6.862-6.86 0-3.783 3.078-6.862 6.862-6.862.47 0 .85-.38.85-.85s-.38-.85-.85-.85H17.122V8.562c0-3.782 3.078-6.86 6.86-6.86h41.17c-2.098 1.562-3.463 4.05-3.463 6.86V70.25zm8.56-54.826h-6.86v-6.86c0-3.784 3.077-6.863 6.86-6.863 3.782 0 6.86 3.075 6.86 6.86 0 3.78-3.078 6.86-6.86 6.86z"/>
  </g>
</svg>