<svg xmlns="http://www.w3.org/2000/svg" viewBox="0 0 30 30">
  <title>sound on icon</title>
  <g id="sound-on" fill="#FFF" fill-rule="evenodd">
    <path id="circle" d="M14.625 29.25C6.56 29.25 0 22.69 0 14.625 0 6.56 6.56 0 14.625 0 22.69 0 29.25 6.56 29.25 14.625c0 8.065-6.56 14.625-14.625 14.625zm0-27.857C7.33 1.393 1.393 7.33 1.393 14.625c0 7.296 5.936 13.232 13.232 13.232 7.296 0 13.232-5.936 13.232-13.232 0-7.296-5.936-13.232-13.232-13.232z"/>
    <path id="speaker" d="M9.764 11.575H5.53l-.53.53v5.532l.53.53h4.234l4.574 4.574.903-.372V7.374L14.34 7l-4.574 4.575zm-3.706 1.058h3.385v4.475H6.058v-4.475zm8.125 8.457L10.5 17.407v-5.074l3.683-3.682v12.44z"/>
    <g id="x" stroke="#FFF" stroke-linecap="square">
      <path id="x-left" d="M17.77 11.423l7.33 7.33"/>
      <path id="x-right" d="M24.882 11.423l-7.33 7.33"/>
    </g>
  </g>
</svg>