<svg xmlns="http://www.w3.org/2000/svg" viewBox="0 0 30 30">
  <title>sound on icon</title>
  <g id="sound-on" fill="#FFF" fill-rule="evenodd">
    <path id="circle" d="M14.625 29.25C6.56 29.25 0 22.69 0 14.625 0 6.56 6.56 0 14.625 0 22.69 0 29.25 6.56 29.25 14.625c0 8.065-6.56 14.625-14.625 14.625zm0-27.857C7.33 1.393 1.393 7.33 1.393 14.625c0 7.296 5.936 13.232 13.232 13.232 7.296 0 13.232-5.936 13.232-13.232 0-7.296-5.936-13.232-13.232-13.232z"/>
    <path id="wave-outside" d="M20.748 7L20 7.748c1.903 1.902 2.95 4.432 2.95 7.122 0 2.69-1.047 5.22-2.95 7.123l.748.748c2.102-2.1 3.26-4.895 3.26-7.87S22.85 9.104 20.748 7"/>
    <path id="wave-inside" d="M17.748 10l-.748.748c1.1 1.102 1.71 2.566 1.71 4.124 0 1.558-.61 3.022-1.71 4.124l.748.748c1.3-1.3 2.018-3.032 2.018-4.872 0-1.84-.717-3.57-2.018-4.872"/>
    <path id="speaker" d="M9.764 11.575H5.53l-.53.53v5.532l.53.53h4.234l4.574 4.574.903-.372V7.374L14.34 7l-4.574 4.575zm-3.706 1.058h3.385v4.475H6.058v-4.475zm8.125 8.457L10.5 17.407v-5.074l3.683-3.682v12.44z"/>
  </g>
</svg>