<svg viewBox="0 0 406 483" xmlns="http://www.w3.org/2000/svg">
  <title>Electricomics splash screen</title>
  <g id="splash" fill="none" fill-rule="evenodd">
    <g id="symbol">
      <path id="e" fill="#FFF" d="M267.036 260.595c-2.12-2.02-4.937-3.135-7.93-3.135-2.99 0-5.806 1.113-7.93 3.133-11.065 10.53-28.882 16.816-47.66 16.816-32.242 0-58.473-17.75-58.473-39.57 0-12.42 8.925-24.25 23.92-31.76 7.88 2.6 18.722 4.04 30.654 4.04 20.998 0 43.598-4.88 43.598-15.58 0-10.71-22.6-15.58-43.598-15.58-11.817 0-22.575 1.4-30.44 3.97-8.83-5.89-13.678-13.51-13.678-21.54 0-16.81 21.82-31.01 47.65-31.01 13.68 0 26.77 3.94 35.91 10.82 2 1.5 4.4 2.3 6.94 2.3 3.45 0 6.66-1.49 8.81-4.08 1.87-2.26 2.71-5.07 2.37-7.94-.34-2.9-1.85-5.48-4.24-7.28-13.22-9.95-30.91-15.42-49.8-15.42-38.69 0-70.17 23.59-70.17 52.59 0 11.63 5.15 22.98 14.56 32.17-15.94 11.52-25.02 27.54-25.02 44.27 0 26.74 23.68 50.81 57.6 58.54l.12.02c6.46 1.01 9.36 6.36 9.36 11.2v43.87h26.89V307.6c0-2.474 1.98-9.913 8.06-10.703l.13-.02c16.83-3.39 31.47-10.644 42.33-20.976 2.14-2.04 3.32-4.76 3.32-7.66 0-2.89-1.18-5.61-3.32-7.65"/>
      <path id="bulb" fill="#FFF" d="M261.638 335.922c-1.487 0-2.69-1.196-2.69-2.67v-7.357c0-19.525 15.606-36.545 22.316-42.955.035-.035.072-.067.11-.1 24.566-21.026 38.656-51.095 38.656-82.497 0-26.414-9.368-51.866-26.376-71.67-16.996-19.786-40.926-33.133-67.382-37.583-.087-.015-.174-.034-.258-.057-11.754-3.18-15.92-13.147-18.444-22.477-1.158-4.28 1.4-8.014 1.696-8.427.058-.08.12-.16.186-.23 2.174-2.42 2.31-5.16 2.31-5.19 0-1.79-.765-6.12-7.843-6.12h-1.48c-7.08 0-7.84 4.33-7.84 6.19 0 0 .18 2.75 2.31 5.11.06.07.12.15.18.23.29.41 2.85 4.14 1.69 8.42-2.53 9.33-6.69 19.29-18.44 22.47-.09.02-.18.04-.26.05-26.46 4.45-50.39 17.79-67.38 37.58-17.01 19.8-26.38 45.25-26.38 71.67 0 31.4 14.09 61.47 38.65 82.49.03.03.07.06.11.1 6.71 6.41 22.31 23.43 22.31 42.95v7.35c0 1.47-1.21 2.67-2.69 2.67-1.49 0-2.69-1.2-2.69-2.67v-7.36c0-17.43-14.38-33.08-20.62-39.06-25.72-22.04-40.47-53.56-40.47-86.49 0-27.69 9.82-54.37 27.66-75.14 17.78-20.71 42.8-34.68 70.44-39.36 7.28-2.02 11.49-7.44 14.53-18.68.44-1.65-.59-3.47-.83-3.87-3.32-3.78-3.53-7.97-3.54-8.44 0-5.81 4.08-11.61 13.22-11.61h1.47c9.13 0 13.22 5.79 13.22 11.54-.02.54-.23 4.74-3.56 8.53-.41.63-1.23 2.35-.82 3.85 3.04 11.24 7.26 16.66 14.54 18.68 27.64 4.68 52.66 18.66 70.44 39.37 17.84 20.77 27.66 47.45 27.66 75.13 0 32.93-14.75 64.45-40.47 86.49-6.24 5.98-20.61 21.63-20.61 39.06v7.35c0 1.47-1.2 2.67-2.69 2.67"/>
      <path id="base" fill="#4A4A4A" d="M337.47 371.992h-10.938v-14.92h4.285c2.784 0 5.04-2.147 5.04-4.797s-2.256-4.8-5.04-4.8h-23.044c-2.783 0-5.04 2.15-5.04 4.8s2.257 4.797 5.04 4.797h4.084v14.923c-31.835.056-46.187 1.3-47.312-24.915h8.633c3.312 0 6-2.556 6-5.71v-9.346c0-3.154-2.688-5.71-6-5.71H129.275c-3.313 0-5.998 2.556-5.998 5.71v9.347c0 3.16 2.685 5.71 5.998 5.71h8.238c-1.074 25.01-14.18 25.03-43.027 24.93v-14.93h4.284c2.784 0 5.04-2.14 5.04-4.79s-2.256-4.8-5.04-4.8H75.726c-2.784 0-5.04 2.15-5.04 4.8s2.256 4.8 5.04 4.8h4.083V372h-9.27c-9 0-21.21 3.472-33.18 8.98 15.85 15.596 37.59 25.23 61.59 25.23h208.74c24.08 0 45.9-9.7 61.77-25.398-12.39-5.47-24.62-8.813-32-8.813"/>
      <path id="border" stroke="#4A4A4A" stroke-width="5" d="M94.407 3h217.185C362.075 3 403 43.927 403 94.408v217.185C403 362.075 362.073 403 311.592 403H94.407C43.925 403 3 362.073 3 311.593V94.408C3 43.925 43.927 3 94.407 3z"/>
    </g>
    <g id="lettering" fill="#FFF">
      <path id="i" d="M190.7 448.68c.288.137.656.243 1.108.243.707 0 1.616-.26 2.734-1.066l2.164-1.558c.5-.36 1.65-1.34 1.534-2.62-.062-.7-.49-1.3-1.142-1.61-.744-.36-2.012-.5-3.844.82l-2.163 1.56c-.5.36-1.65 1.33-1.53 2.62.06.69.49 1.29 1.14 1.6m106.22 0c.29.13.66.24 1.11.24.71 0 1.62-.26 2.74-1.07l2.17-1.56c.5-.36 1.65-1.34 1.54-2.62-.06-.7-.49-1.3-1.14-1.61-.74-.36-2.01-.5-3.84.82l-2.16 1.56c-.5.36-1.65 1.33-1.53 2.62.06.69.49 1.29 1.14 1.6"/>
      <path id="all" d="M340.946 460.06c.647-.81 1.24-1.65 1.772-2.52 1.728-2.835 2.63-6.625-.025-8.753-3.455-2.772-7.598-.56-9.59.504-2.747 1.47-4.765 3.88-5.4 6.46-.68 2.77 1.405 5.01 3.843 6.7-1.03.93-2.15 1.87-3.362 2.82-3.314 2.45-11.8 8.68-16.693 7.31-1.4-.39-2.43-1.43-3.14-3.18-1.43-3.53 2.69-10.75 6.03-13.42 1.35-1.07 2.69-1.38 3.77-.86.95.46 1.59 1.5 1.59 2.59 0 1.19-.76 2.2-2.13 2.86-1.37.66-2.94 2.47-2.19 4.03.21.44 1.09 1.79 3.49.64 3.19-1.52 6.8-5.22 7.2-9.07.17-1.63-.15-3.98-2.68-5.93-1.47-1.14-3.35-1.53-5.43-1.15-5.2.96-10.52 6.4-12.08 8.96-.82 1.34-2.67 4.65-3.51 8.25-.15.14-.28.29-.38.44-.67 1.03-2.9 3.63-4.42 4.95.17-1.26.5-2.58.82-3.87.17-.68.34-1.36.49-2.03.64-2.92 1.31-5.82 1.93-8.5.06-.16.1-.32.12-.48.42-1.82.83-3.53 1.19-5.05.16-.66-.03-1.32-.51-1.77-.9-.84-2.15-.47-2.57-.34-.3.09-2.89.91-3.32 2.76l-.74 3.13c-.14.57-.27 1.14-.41 1.7-1.24 2.12-2.57 4.29-4.08 6.63-1.07 1.66-4.11 5.55-6.03 7.35.34-1.25 1.01-2.88 1.48-4 .38-.92.73-1.79.95-2.47.16-.5.49-1.29.86-2.21 1.94-4.73 3.43-8.85 2.01-11.33-1.06-1.85-2.54-2.29-3.61-2.34h-.18c-5.05 0-11.08 8.62-11.14 8.71-.33.48-.67.97-1 1.46.9-3.42 1.8-7.18-.32-9.02-1.87-1.61-4.66-.42-5.58-.02-3.47 1.49-6.16 4.45-8.38 7.55l1.57-6.22c.17-.65-.02-1.32-.49-1.77-.57-.56-1.41-.69-2.5-.38-.01 0-.06.02-.09.02-.98-.03-2.06.38-2.77.94-1.71 1.34-3.95 2.49-6.36 3.35-.59-1.11-1.39-2.1-2.44-2.93-1.6-1.26-3.51-1.79-5.55-1.55-.23-.09-.52-.14-.85-.13-6.67.21-13.17 3.37-16.95 8.26-.78 1.01-1.43 2.06-1.94 3.15-6.71 10.09-11.25 12.52-13.92 12.7-1.75.12-3.32-.67-4.8-2.44-.67-.8-.88-1.87-.78-3.08.1-.31.12-.58.11-.83.55-3.07 2.76-6.78 4.73-9.24.977-1.22 2.93-2.51 4.63-2.51h.01c.77 0 1.357.28 1.827.87.44.56.32 1.44.21 1.91-.32 1.4-1.29 2.63-2 2.97-1.37.66-2.94 2.47-2.19 4.02.21.44 1.09 1.79 3.487.64 2.84-1.36 8.01-7.39 7.34-11.75-.2-1.27-1.07-3.49-4.73-4.01-8.736-1.23-15.19 6.39-18.31 13.95-.47 1.14-.79 2.26-.985 3.34-.69 1.04-2.89 3.61-4.39 4.91.166-1.26.5-2.58.82-3.87.17-.68.34-1.36.48-2.02.51-2.34 1.04-4.67 1.55-6.89.02-.065.03-.13.05-.19.58-2.54 1.14-4.92 1.626-6.96.16-.66-.04-1.32-.52-1.774-.895-.84-2.15-.46-2.57-.34-.29.09-2.89.92-3.32 2.76l-.753 3.18-.82 3.48c-1.71 3.51-4.13 6.91-7.02 9.84-1.44 1.46-3.11 2.64-4.98 3.51.09-.7.37-1.84.93-3.243 1.28-3.2 3.5-6.22 5.92-8.08.57-.44 1.9-1.89 1.25-3.32-.15-.34-.78-1.4-2.5-1.05-1.58.33-3.28.38-5.33.15-.84-.09-1.63-.35-2.33-.76.39-.52.77-1.04 1.14-1.563 1.73-2.45.57-4.06.17-4.49-1.233-1.35-3.68-1.5-5.68-.34-2.02 1.164-3.335 2.822-3.7 4.67-.16.83-.185 1.98.36 3.274-.67.885-1.34 1.79-1.987 2.71-.15.2-.25.396-.33.58-.15.14-.27.27-.35.39-1.75 2.52-5.88 7.84-8.265 10.18.22-1.4.67-3.19.89-4.05.21-.834.37-1.49.44-1.93.56-3.58 1.13-7.16 1.7-10.73h2.95c1.17 0 2.41-.53 3.39-1.46.54-.5 1.325-1.66.87-2.8-.23-.59-.863-1.23-1.93-1.23h-4.42c.5-3.12.986-6.25 1.487-9.37.18-1.072-.52-2.013-1.62-2.19-1.39-.213-4.51 1.058-4.83 3.07l-.91 5.667-.452 2.82h-1.4c-1.17 0-2.4.53-3.39 1.458-.54.506-1.32 1.66-.87 2.8.24.598.87 1.23 1.93 1.23h2.85l-.55 3.46c-3.77 5.82-11.32 14.34-17.28 14.73-2.01.127-3.72-.68-5.23-2.48-2.43-2.9 1.1-9.45 4.06-13.144.98-1.22 2.93-2.516 4.63-2.516h.01c.78 0 1.36.28 1.83.87.44.55.33 1.43.22 1.91-.32 1.39-1.28 2.62-1.99 2.96-1.37.655-2.94 2.465-2.19 4.02.21.44 1.088 1.786 3.48.64 2.85-1.36 8.02-7.4 7.35-11.75-.193-1.275-1.07-3.495-4.723-4.015-9.28-1.32-15.85 7.19-18.91 15.6-.412 1.14-.642 2.25-.73 3.32-.243.14-.47.28-.63.426-2.65 2.383-8.9 5.62-12.03 2.695-.622-.58-.65-1.02-.6-1.33.14-.9 1.07-1.97 2.24-2.933 2.99-.19 6.12-1.39 7.88-2.16.05-.03 4.76-2.68 4.21-5.21-.086-.4-.52-1.69-2.513-1.69h-.054c-2.77.03-6.44 1.18-9.76 3.084-.06-.05-.11-.11-.17-.16-.42-.47-.6-1.24-.482-2.06.267-1.83 3.256-4.15 5.516-4.29 1.27-.07 1.63.56 1.81 1.25.2.73 1.05 1.83 2.96 1.31 1.71-.47 3.88-2.01 3.344-3.97-.627-2.3-2.32-3.76-4.77-4.12-4.61-.662-11.36 2.86-14.17 7.4-1.754 2.84-1.79 5.747-.1 8.18.2.28.41.53.64.76-.18.207-.357.417-.526.63-.7.496-1.4.995-2.09 1.5-1.57 1.13-3.19 2.307-4.83 3.36l-.11.07c-.414.27-1.1.71-1.58.93-.01-.055-.01-.115-.02-.183-.16-1.48.01-3.12.177-4.7l.09-.86c.08-.82.16-1.69.26-2.58 3.88-3.95 7.5-8.55 10.68-13.63 5.32-8.5 6.73-14.46 4.18-17.71-2.88-3.68-9.81 1.39-9.88 1.44-3.96 2.933-5.82 7.16-7.24 11.29-1.78 5.19-3.11 11.15-3.972 17.79-4.21 3.973-8.64 6.985-12.943 8.75-3.4.69-6.89.38-9.84-1.38-1.98-1.18-3.14-3.02-3.27-5.16-.14-2.41 1.02-4.81 3.11-6.42.77-.59 1.676-1.09 2.69-1.504.68.23 1.4.43 2.157.59 2.44.52 12.06 1.465 14.47-3.48.47-.96.23-1.98-.61-2.61-3.63-2.72-9.57-1.63-13.9-.255-1.74-.86-3.125-2.2-3.85-3.82-.72-1.61-.04-4.17 1.92-7.22 2.21-3.44 6.34-4 9.42-3.875 2.14.097 4.4 1.44 4.93 2.94.33.94-.08 1.92-1.21 2.92-.32.28-1.28 1.13-1.05 2.3.13.65.6 1.17 1.26 1.39 1.24.42 3.35-.34 4.163-1.05 2.67-2.35 3.79-5.59 2.93-8.46-.85-2.84-3.47-4.83-6.99-5.32-8.29-1.15-16.47 2.67-19.906 9.29-2.07 3.99-2.39 7.74-.93 10.84.55 1.16 1.323 2.2 2.313 3.09-5.14 3.16-8.95 8.75-6.823 15.163.96 2.88 2.81 5.01 5.52 6.32 2.17 1.05 4.67 1.47 7.19 1.47 1.69 0 3.38-.19 5-.5.486.07 1.104.01 1.894-.3.34-.136.68-.28 1.02-.42.53-.16 1.05-.33 1.54-.51 3.32-1.205 6.42-2.91 9.04-4.92-.16 2.64-.07 5.06 1.62 6.364.64.49 1.41.74 2.3.74.67 0 1.41-.14 2.22-.42 2.49-.86 4.747-2.24 6.9-3.75.21.62.54 1.2 1 1.726 1.69 1.92 4.58 2.58 6.83 2.58.26 0 .518-.01.76-.024 4.09-.29 8.12-1.82 11.8-4.43.2.33.42.65.67.95 1.85 2.24 4.86 3.46 8.35 3.46.81 0 1.647-.06 2.498-.2 5.3-.84 10.34-3.8 15.24-8.95-.21 1.37-.42 2.74-.62 4.1-.15 1.05-.48 3.24.93 4.45.62.53 1.37.69 2.05.69.82 0 1.57-.23 1.92-.34 6.06-1.91 10.59-8.56 13.9-13.41.36-.527.7-1.03 1.037-1.51.14-.2.24-.39.32-.58.14-.13.26-.26.34-.38l.295-.42c1.45.69 3.1 1 4.66 1.1-1.39 1.82-2.64 3.9-3.74 6.23-.45.935-2.54 5.726-.25 8.226.53.58 1.39 1.13 2.75 1.13.71 0 1.566-.15 2.58-.53 3.3-1.23 6.45-3.26 9.31-5.92-.07.38-.153.75-.22 1.13-.34 1.84.08 3.39 1.17 4.36.44.39 1.277.92 2.568.92.502 0 1.074-.08 1.72-.28 2.543-.78 4.64-2.25 6.422-4.01.13.21.24.42.38.62 1.74 2.36 4.63 3.62 8.23 3.62.49 0 1-.02 1.52-.07 5.263-.48 9.52-3.5 13.053-7.34.02.09.02.17.04.254.49 2.166 1.82 3.98 3.85 5.25 1.935 1.207 4.46 1.86 6.95 1.86 1.03 0 2.06-.114 3.04-.35 6.04-1.432 11.05-5.18 14.095-10.54 1.51-2.66 2.36-5.97 2.146-9.08 1.194-.44 2.32-.91 3.374-1.41l-4.8 19.03c-.24.96.23 1.9 1.12 2.247 1.55.596 4.52-1.2 5.08-2.256 3.71-7.02 7.55-14.28 12.88-19.85.19-.2.36-.37.506-.5-.05.72-.19 1.72-.48 2.84-.326 1.27-.666 2.54-1.006 3.81-.23.85-.46 1.71-.68 2.56-.97 3.71-1.94 7.43-2.9 11.14-.24.95.18 1.87 1.04 2.24.23.1.49.148.77.148 1.68 0 3.94-1.66 4.31-2.25 3.78-5.98 7.5-11.82 11.416-17.48.52-.753 1.83-1.88 2.76-2.444-.22 1.53-.88 3.28-1.52 4.98-.34.89-.66 1.74-.93 2.57-1.05 3.3-2.107 6.61-3.165 9.91-.31.98-.12 2.18.52 3.12.58.86 1.45 1.4 2.39 1.47 3.38.25 6.43-2.04 8.7-4.073.63-.56 1.22-1.18 1.8-1.82-.05.27-.11.54-.16.81-.34 1.84.08 3.39 1.17 4.36.44.4 1.273.92 2.57.92.5 0 1.07-.08 1.72-.28 2.5-.77 4.57-2.19 6.33-3.91.85 1.56 2.6 3.34 6.204 3.95.98.17 1.93.24 2.86.24 7.1 0 13.05-4.45 18.37-8.43l.96-.71c.05-.03.1-.06.15-.1l.3-.23.04-.03c.06-.04.114-.09.17-.13 1.38-1.08 2.77-2.19 4.094-3.35l.59.31c5.13 2.813 7.2 4.44 5.54 8.21-.43.96-4.63 3.303-7.46 2.9-1.08-.16-1.37-.66-1.47-1.35 0-.01.07-.75 2.04-2.26 2.13-1.63 1.317-3.04 1.01-3.43-.96-1.26-3.17-.96-4.54.09-1.6 1.23-5.26 4.46-4.66 7.87.23 1.3 1.17 3.063 4.37 4.085 1.25.4 2.5.58 3.73.58 5.96 0 11.4-4.31 13.59-9.28 2.79-6.337-3.105-10.02-7.865-12.71zm-6.787-4.782c.03-.263.73-1.01 1.92-1.433.51-.184.93-.243 1.23-.243.27 0 .45.048.5.097.05.07.17.59-.27 1.81-.23.62-.63 1.26-1.11 1.88-1.03-.7-1.85-1.41-2.28-2.12zM103.6 438.532c.855-1.186 1.864-1.57 2.1-1.57h.02c.003.003.233.316.107 1.405-.57 4.956-3.854 10.163-6.65 14.146-.46.657-.93 1.303-1.406 1.936 1.04-5.76 2.75-11.64 5.83-15.92zm129.963 33.812c-1.744.184-4.975-.013-6.947-3.425-1.32-2.29-.19-5.82.776-8.28.1-.26.21-.49.322-.73l.42-.68.31-.5c.072-.12.124-.23.172-.35.87-1.19 1.937-2.05 3.096-2.67-.53 1.34-.087 2.31.27 2.81 2.2 3.08 11.37 1.41 11.46 1.39.068-.02.135-.03.203-.05-.09 2.16-.836 4.46-1.164 5.47-1.17 3.62-4.92 6.55-8.92 6.97zm7.7-17.42c.065.026.132.06.2.1-.786.06-1.56.076-2.3.05-.097-.005-.185-.01-.264-.018.5-.294 1.35-.534 2.36-.132z"/>
    </g>
  </g>
</svg>