<svg xmlns="http://www.w3.org/2000/svg" viewBox="0 0 73 80">
  <title>swipe icon</title>
  <g id="swipe" fill="#FFF" fill-rule="evenodd">
    <path id="hand" d="M71.44 32.417H42.32V8.3c0-3.244-2.638-5.883-5.88-5.883-3.244 0-5.883 2.64-5.883 5.882v50c0 11.51 9.368 20.88 20.882 20.88 11.51 0 20.88-9.37 20.88-20.88v-25c0-.49-.4-.89-.88-.89zM70.557 58.3c0 10.54-8.577 19.117-19.12 19.117-10.54 0-19.117-8.576-19.117-19.118v-50c0-2.27 1.85-4.12 4.12-4.12s4.118 1.85 4.118 4.12v30c0 .48.394.88.88.88.488 0 .883-.4.883-.88v-4.12h8.24v4.12c0 .48.4.88.88.88s.88-.4.88-.88v-4.12h8.24v4.12c0 .48.4.88.88.88s.88-.4.88-.88v-4.12h8.24V58.3z"/>
    <path id="arrow-light" d="M51.44 9.18h17.87l-5.566 5.567c-.344.344-.344.903 0 1.247.173.173.398.258.624.258.226 0 .45-.085.624-.258l7.07-7.07c.013-.013.017-.03.028-.04.065-.074.124-.153.163-.245.044-.11.068-.23.068-.34 0-.12-.02-.24-.06-.34-.04-.1-.1-.18-.16-.25-.01-.01-.014-.03-.026-.04L64.998.6c-.347-.344-.903-.344-1.25 0-.343.345-.343.904 0 1.248l5.567 5.566H51.44c-.488 0-.883.394-.883.88 0 .49.395.883.882.883"/>
    <path id="arrow-left" d="M21.44 7.418H3.567l5.566-5.566c.343-.344.343-.903 0-1.247C8.788.26 8.23.26 7.886.605l-7.07 7.07c-.008.008-.01.02-.018.026-.07.08-.132.17-.173.27-.09.218-.09.46 0 .677.04.098.102.184.173.26.007.008.01.018.017.026L7.885 16c.173.173.4.26.625.26.225 0 .45-.087.624-.26.343-.344.343-.903 0-1.247L3.568 9.18h17.87c.49 0 .883-.393.883-.88 0-.488-.39-.882-.88-.882"/>
  </g>
</svg>