<svg xmlns="http://www.w3.org/2000/svg" viewBox="0 0 80 80">
  <title>tap icon</title>
  <g id="tap" fill="#FFF" fill-rule="evenodd">
    <path id="circle-middle" d="M39.983 19.612c-11.098 0-20.128 9.028-20.128 20.127 0 11.09 9.03 20.12 20.128 20.12S60.11 50.833 60.11 39.74c0-11.1-9.03-20.128-20.127-20.128zm0 38.554c-10.16 0-18.427-8.267-18.427-18.427 0-10.17 8.266-18.43 18.427-18.43 10.16 0 18.427 8.26 18.427 18.43 0 10.16-8.266 18.42-18.427 18.42z"/>
    <path id="circle-ouside" d="M39.983.334C18.255.334.578 18.01.578 39.74c0 21.726 17.677 39.402 39.405 39.402 21.727 0 39.404-17.676 39.404-39.403C79.387 18.01 61.71.33 39.983.33zm0 77.11c-20.79 0-37.704-16.916-37.704-37.705 0-20.8 16.91-37.71 37.7-37.71s37.7 16.91 37.7 37.7c0 20.79-16.918 37.703-37.708 37.703z"/>
    <path id="circle-inside" d="M39.983 34.07c-3.126 0-5.67 2.542-5.67 5.67 0 3.125 2.544 5.667 5.67 5.667 3.125 0 5.67-2.542 5.67-5.668 0-3.13-2.545-5.67-5.67-5.67zm0 9.638c-2.188 0-3.97-1.78-3.97-3.97 0-2.188 1.782-3.97 3.97-3.97 2.19 0 3.97 1.782 3.97 3.97 0 2.19-1.78 3.97-3.97 3.97z"/>
  </g>
</svg>