<svg xmlns="http://www.w3.org/2000/svg" viewBox="0 0 44 80">
  <title>tilt icon</title>
  <g id="tilt" fill="#FFF" fill-rule="evenodd">
    <path id="arrow-left" d="M.687 8c0 .113.023.224.066.327.037.088.094.165.157.235.01.01.014.027.026.038l6.815 6.816c.17.167.39.25.61.25.22 0 .436-.083.6-.25.335-.332.335-.87 0-1.202L3.59 8.85h17.224c.47 0 .85-.38.85-.85s-.38-.85-.85-.85H3.59l5.364-5.365c.332-.332.332-.87 0-1.202C8.62.25 8.084.25 7.75.583L.937 7.4c-.012.01-.016.025-.026.036-.06.07-.12.148-.15.236-.044.102-.07.214-.07.328"/>
    <path id="arrow-right" d="M43.9 71.804c.04-.103.064-.214.064-.327 0-.114-.023-.225-.065-.328-.04-.09-.1-.17-.16-.24-.01-.015-.02-.03-.03-.04l-6.81-6.81c-.336-.335-.87-.335-1.206 0-.33.33-.33.87 0 1.2l5.365 5.364H23.837c-.47 0-.85.38-.85.85s.38.85.85.85h17.225l-5.365 5.365c-.33.33-.33.87 0 1.2.167.167.384.25.602.25.21 0 .43-.083.6-.25l6.81-6.814c.01-.01.014-.027.024-.038.063-.07.12-.15.16-.238"/>
    <path id="slash" d="M43.822.712c-.158-.236-.423-.378-.708-.378h-9.638c-.343 0-.654.208-.785.525L.76 77.96c-.11.262-.08.562.078.797.16.236.424.38.708.38h9.64c.343 0 .653-.207.784-.525L43.9 1.505c.11-.26.08-.56-.078-.793zm-33.214 76.73H2.81L34.043 2.035h7.8l-31.235 75.41z"/>
  </g>
</svg>
