<svg xmlns="http://www.w3.org/2000/svg" viewBox="0 0 293 52">
  <title>title</title>
  <g id="title" fill="#FFF" fill-rule="evenodd">
    <path id="i-left" d="M133.7 17.68c.288.137.656.243 1.108.243.707 0 1.616-.26 2.734-1.066l2.164-1.558c.5-.36 1.65-1.34 1.534-2.62-.062-.7-.49-1.3-1.142-1.61-.744-.36-2.012-.5-3.844.82l-2.163 1.56c-.5.36-1.65 1.33-1.53 2.62.06.69.49 1.29 1.14 1.6"/>
    <path id="i-right" d="M239.912 17.68c.29.137.657.243 1.11.243.706 0 1.615-.26 2.733-1.066l2.165-1.558c.5-.36 1.65-1.34 1.534-2.62-.062-.7-.49-1.3-1.143-1.61-.74-.36-2.01-.5-3.84.82l-2.16 1.56c-.5.36-1.65 1.33-1.53 2.62.07.69.49 1.29 1.15 1.6"/>
    <path id="shape" d="M283.946 29.06c.647-.81 1.24-1.65 1.772-2.52 1.728-2.835 2.63-6.625-.025-8.753-3.455-2.772-7.598-.56-9.59.504-2.747 1.47-4.765 3.88-5.4 6.46-.68 2.77 1.405 5.01 3.843 6.7-1.03.93-2.15 1.87-3.362 2.82-3.314 2.45-11.8 8.68-16.693 7.31-1.4-.39-2.43-1.43-3.14-3.18-1.43-3.53 2.69-10.75 6.03-13.42 1.35-1.07 2.69-1.38 3.77-.86.95.46 1.59 1.5 1.59 2.59 0 1.19-.76 2.2-2.13 2.86-1.37.66-2.94 2.47-2.19 4.03.21.44 1.09 1.79 3.49.64 3.19-1.52 6.8-5.22 7.2-9.07.17-1.63-.15-3.98-2.68-5.93-1.47-1.14-3.35-1.53-5.43-1.15-5.2.96-10.52 6.4-12.08 8.96-.82 1.34-2.67 4.65-3.51 8.25-.15.14-.28.29-.38.44-.67 1.03-2.9 3.63-4.42 4.95.17-1.26.5-2.58.82-3.87.17-.68.34-1.36.49-2.03.64-2.92 1.31-5.82 1.93-8.5.06-.16.1-.32.12-.48.42-1.82.83-3.53 1.19-5.05.16-.66-.03-1.32-.51-1.77-.9-.84-2.15-.47-2.57-.34-.3.09-2.89.91-3.32 2.76l-.75 3.13c-.14.57-.27 1.14-.41 1.7-1.24 2.12-2.57 4.29-4.08 6.63-1.07 1.66-4.11 5.55-6.03 7.35.34-1.25 1.01-2.88 1.48-4 .38-.92.73-1.79.95-2.47.16-.5.49-1.29.86-2.21 1.94-4.73 3.43-8.85 2.01-11.33-1.06-1.85-2.54-2.29-3.61-2.34H229c-5.05 0-11.08 8.62-11.14 8.71-.34.48-.67.97-1 1.46.9-3.42 1.8-7.18-.33-9.02-1.87-1.61-4.66-.42-5.58-.02-3.47 1.49-6.16 4.45-8.38 7.55l1.57-6.22c.17-.65-.02-1.32-.49-1.77-.57-.56-1.41-.69-2.5-.38-.01 0-.06.02-.09.02-.98-.03-2.06.38-2.77.94-1.71 1.34-3.95 2.49-6.36 3.35-.59-1.11-1.39-2.1-2.44-2.93-1.6-1.26-3.51-1.8-5.55-1.55-.23-.09-.52-.14-.85-.13-6.67.21-13.17 3.37-16.95 8.26-.78 1.007-1.43 2.06-1.943 3.15-6.71 10.09-11.245 12.52-13.925 12.7-1.75.12-3.32-.68-4.8-2.442-.67-.79-.88-1.87-.78-3.08.1-.3.12-.58.1-.82.55-3.07 2.76-6.78 4.736-9.24.98-1.22 2.93-2.51 4.64-2.51h.01c.775 0 1.356.28 1.826.87.44.55.327 1.43.218 1.91-.32 1.39-1.29 2.62-1.993 2.96-1.37.66-2.94 2.47-2.19 4.028.21.44 1.08 1.785 3.48.64 2.84-1.36 8.01-7.397 7.34-11.75-.19-1.28-1.07-3.5-4.72-4.02-8.73-1.23-15.18 6.39-18.31 13.95-.47 1.137-.79 2.256-.98 3.34-.69 1.045-2.89 3.61-4.39 4.91.17-1.26.5-2.59.82-3.88.17-.68.34-1.36.48-2.02.51-2.34 1.04-4.67 1.55-6.89.02-.065.03-.13.04-.19.58-2.54 1.14-4.92 1.62-6.96.16-.66-.04-1.32-.52-1.774-.9-.84-2.15-.46-2.57-.34-.29.09-2.89.92-3.32 2.76l-.76 3.18-.83 3.48c-1.71 3.51-4.13 6.905-7.02 9.843-1.44 1.46-3.11 2.64-4.98 3.51.09-.7.37-1.84.94-3.24 1.28-3.2 3.5-6.22 5.92-8.08.57-.44 1.9-1.89 1.25-3.32-.15-.332-.78-1.4-2.5-1.05-1.58.33-3.28.38-5.33.15-.85-.09-1.63-.35-2.33-.76.38-.513.76-1.04 1.14-1.56 1.73-2.45.57-4.06.17-4.5-1.24-1.36-3.68-1.5-5.69-.35-2.02 1.17-3.33 2.83-3.7 4.67-.16.83-.18 1.98.36 3.28-.67.89-1.34 1.79-1.986 2.71-.14.2-.24.4-.32.584-.15.136-.27.266-.35.386-1.75 2.52-5.88 7.84-8.265 10.17.22-1.4.666-3.186.88-4.05.21-.83.376-1.49.44-1.926.56-3.58 1.14-7.153 1.707-10.73h2.96c1.17 0 2.41-.53 3.39-1.455.54-.51 1.325-1.66.87-2.81-.23-.59-.86-1.23-1.93-1.23h-4.41c.5-3.12.98-6.24 1.48-9.36.17-1.07-.53-2.015-1.62-2.19-1.4-.215-4.51 1.06-4.84 3.07l-.91 5.665-.46 2.82h-1.4c-1.17 0-2.4.53-3.39 1.46-.54.5-1.32 1.66-.87 2.8.24.59.87 1.22 1.93 1.22h2.85l-.55 3.456c-3.78 5.82-11.33 14.34-17.29 14.73-2.01.13-3.72-.68-5.23-2.48-2.43-2.9 1.1-9.45 4.06-13.14.98-1.22 2.93-2.51 4.63-2.51h.01c.77 0 1.35.28 1.82.87.45.56.33 1.43.22 1.91-.32 1.39-1.28 2.623-1.99 2.963-1.37.657-2.94 2.467-2.19 4.02.21.44 1.088 1.78 3.48.63 2.84-1.36 8.01-7.4 7.34-11.75-.19-1.28-1.07-3.5-4.72-4.02-9.29-1.32-15.86 7.19-18.92 15.6-.42 1.15-.65 2.26-.73 3.33-.25.14-.47.28-.63.427-2.65 2.38-8.9 5.62-12.03 2.7-.63-.59-.65-1.02-.6-1.34.14-.9 1.07-1.97 2.23-2.94 2.99-.19 6.12-1.39 7.88-2.17.05-.023 4.76-2.68 4.21-5.21-.09-.395-.52-1.683-2.51-1.683h-.06c-2.77.03-6.44 1.18-9.76 3.08-.06-.05-.11-.1-.16-.16-.42-.47-.6-1.24-.482-2.06.26-1.823 3.25-4.15 5.51-4.29 1.28-.07 1.63.56 1.82 1.25.2.73 1.05 1.83 2.96 1.31 1.71-.46 3.88-2 3.34-3.97-.62-2.3-2.32-3.76-4.77-4.11-4.61-.67-11.36 2.86-14.17 7.4-1.75 2.84-1.79 5.74-.1 8.17.2.28.41.54.64.77-.18.2-.35.41-.52.63-.7.49-1.4.99-2.095 1.5-1.57 1.13-3.19 2.3-4.83 3.36l-.11.07c-.42.27-1.1.71-1.58.93-.01-.06-.01-.12-.02-.188-.15-1.48.02-3.113.18-4.7l.08-.86c.08-.82.17-1.682.26-2.58 3.88-3.95 7.5-8.55 10.68-13.63C55.59 10.6 57 4.64 54.45 1.39c-2.88-3.68-9.81 1.38-9.88 1.43-3.945 2.94-5.805 7.17-7.225 11.3-1.78 5.19-3.11 11.15-3.97 17.79-4.21 3.97-8.64 6.99-12.94 8.75-3.4.69-6.89.38-9.85-1.38-1.99-1.19-3.15-3.02-3.27-5.17-.14-2.41 1.02-4.81 3.1-6.41.76-.59 1.67-1.09 2.69-1.502.68.23 1.4.42 2.15.58 2.446.527 12.067 1.47 14.47-3.473.465-.96.224-1.99-.615-2.62-3.62-2.72-9.56-1.63-13.89-.25-1.74-.87-3.12-2.21-3.85-3.83-.72-1.605-.04-4.17 1.92-7.22 2.216-3.438 6.346-4 9.426-3.874 2.14.09 4.398 1.43 4.927 2.94.33.93-.077 1.92-1.21 2.92-.32.28-1.28 1.12-1.05 2.3.13.65.6 1.17 1.25 1.39 1.24.43 3.35-.33 4.16-1.05 2.67-2.35 3.79-5.59 2.93-8.46C32.79 2.69 30.17.7 26.65.21 18.36-.938 10.177 2.89 6.745 9.502c-2.07 3.99-2.39 7.74-.927 10.85.548 1.16 1.326 2.194 2.316 3.09C3 26.6-.812 32.18 1.31 38.6c.954 2.88 2.81 5.008 5.518 6.32 2.163 1.05 4.663 1.47 7.19 1.47 1.683 0 3.38-.188 4.993-.5.49.072 1.11.01 1.9-.297.34-.132.68-.277 1.02-.42.54-.16 1.06-.327 1.55-.506 3.31-1.204 6.42-2.91 9.04-4.92-.16 2.644-.07 5.063 1.62 6.365.64.49 1.41.735 2.29.735.67 0 1.42-.14 2.22-.42 2.49-.86 4.75-2.232 6.9-3.75.21.626.55 1.208 1 1.73 1.69 1.92 4.58 2.58 6.84 2.58.27 0 .52-.01.76-.027 4.1-.286 8.12-1.815 11.8-4.423.2.33.43.647.68.95 1.85 2.237 4.86 3.46 8.35 3.46.81 0 1.65-.065 2.5-.2 5.31-.84 10.35-3.8 15.25-8.95-.21 1.367-.42 2.734-.62 4.096-.15 1.052-.48 3.245.93 4.452.63.53 1.37.692 2.05.692.83 0 1.57-.233 1.92-.344 6.06-1.906 10.59-8.554 13.9-13.408l1.04-1.513c.14-.198.24-.39.32-.574.15-.13.27-.26.35-.38l.3-.414c1.45.686 3.09.994 4.65 1.095-1.38 1.82-2.63 3.9-3.74 6.22-.44.93-2.54 5.72-.25 8.22.53.57 1.39 1.12 2.76 1.12.71 0 1.57-.15 2.58-.53 3.3-1.23 6.45-3.26 9.31-5.92-.07.37-.15.75-.22 1.12-.34 1.84.08 3.38 1.18 4.36.44.39 1.28.92 2.57.92.51 0 1.08-.08 1.72-.28 2.55-.79 4.64-2.25 6.43-4.01.12.2.23.42.38.61 1.73 2.36 4.62 3.61 8.23 3.61.5 0 1-.03 1.52-.07 5.27-.48 9.52-3.51 13.06-7.34.02.08.03.17.04.25.48 2.17 1.82 3.98 3.85 5.25 1.93 1.21 4.46 1.86 6.95 1.86 1.03 0 2.06-.11 3.04-.35C182.99 45.1 188 41.36 191.04 36c1.51-2.66 2.36-5.97 2.145-9.08 1.194-.44 2.32-.92 3.374-1.42l-4.81 19.04c-.25.954.23 1.9 1.12 2.24 1.54.6 4.51-1.197 5.07-2.255 3.71-7.02 7.55-14.278 12.87-19.85.18-.2.35-.365.5-.5-.05.723-.19 1.72-.48 2.84-.33 1.273-.67 2.543-1.01 3.815-.23.85-.46 1.708-.68 2.56-.97 3.71-1.94 7.426-2.9 11.14-.25.946.18 1.866 1.04 2.237.23.1.49.14.76.14 1.68 0 3.94-1.66 4.31-2.25 3.78-5.99 7.49-11.82 11.41-17.48.52-.76 1.83-1.88 2.76-2.45-.21 1.53-.88 3.28-1.52 4.98-.34.895-.66 1.74-.92 2.57-1.05 3.31-2.1 6.61-3.16 9.92-.31.99-.12 2.186.51 3.127.58.86 1.45 1.394 2.39 1.47 3.38.244 6.43-2.044 8.69-4.08.63-.56 1.22-1.18 1.8-1.82-.05.27-.11.54-.16.81-.34 1.84.08 3.39 1.17 4.365.44.39 1.28.92 2.57.92.5 0 1.07-.08 1.72-.28 2.5-.77 4.57-2.2 6.33-3.92.85 1.55 2.6 3.34 6.21 3.95.98.16 1.93.24 2.86.24 7.1 0 13.05-4.45 18.37-8.44l.95-.72c.04-.04.1-.06.14-.1.1-.08.19-.16.29-.24l.04-.03c.06-.04.11-.09.17-.13 1.38-1.08 2.76-2.19 4.09-3.35.21.1.4.2.59.31 5.13 2.81 7.2 4.44 5.55 8.21-.43.96-4.63 3.3-7.46 2.9-1.08-.15-1.37-.66-1.47-1.35 0-.01.07-.75 2.04-2.27 2.13-1.64 1.31-3.04 1.01-3.43-.96-1.26-3.17-.96-4.54.09-1.6 1.23-5.26 4.46-4.67 7.87.23 1.3 1.17 3.06 4.37 4.09 1.25.4 2.5.58 3.73.58 5.96 0 11.4-4.31 13.59-9.29 2.79-6.34-3.11-10.02-7.87-12.71zm-6.787-4.782c.03-.263.73-1.01 1.92-1.433.51-.184.93-.243 1.23-.243.27 0 .45.048.5.097.05.07.17.59-.27 1.81-.23.62-.63 1.26-1.11 1.88-1.03-.7-1.85-1.41-2.28-2.12zM46.6 7.532c.855-1.186 1.864-1.57 2.1-1.57h.02c.003.003.233.316.107 1.405-.57 4.956-3.854 10.163-6.65 14.146-.46.657-.93 1.303-1.406 1.936 1.04-5.76 2.75-11.64 5.83-15.92zm129.963 33.812c-1.744.184-4.975-.013-6.947-3.425-1.32-2.29-.19-5.82.776-8.28.1-.26.21-.49.322-.73l.42-.68.31-.5c.072-.12.124-.23.172-.35.87-1.19 1.937-2.05 3.096-2.67-.53 1.34-.087 2.31.27 2.81 2.2 3.08 11.37 1.41 11.46 1.39.068-.02.135-.03.203-.05-.09 2.16-.836 4.46-1.164 5.47-1.17 3.62-4.92 6.55-8.92 6.97zm7.7-17.42c.065.026.132.06.2.1-.786.06-1.56.076-2.3.05-.097-.005-.185-.01-.264-.018.5-.294 1.35-.534 2.36-.132z"/>
  </g>
</svg>